<svg xmlns="http://www.w3.org/2000/svg"  viewBox="0 0 50 50" width="50px" height="50px"><path d="M 25 2 C 12.296875 2 2 12.296875 2 25 C 2 37.703125 12.296875 48 25 48 C 37.703125 48 48 37.703125 48 25 C 48 12.296875 37.703125 2 25 2 Z M 25 8 C 29.964844 8 34 12.035156 34 17 L 34 21 L 28 21 L 28 17 C 28 15.347656 26.652344 14 25 14 C 23.347656 14 22 15.347656 22 17 L 22 21 L 16 21 L 16 17 C 16 12.035156 20.035156 8 25 8 Z M 25 10 C 21.132813 10 18 13.132813 18 17 L 18 19 L 20 19 L 20 17 C 20 14.238281 22.238281 12 25 12 C 27.761719 12 30 14.238281 30 17 L 30 19 L 32 19 L 32 17 C 32 13.132813 28.867188 10 25 10 Z M 15.183594 23 L 34.816406 23 C 36.023438 23 37 24.023438 37 25.285156 L 37 36.714844 C 37 37.976563 36.023438 39 34.816406 39 L 15.183594 39 C 13.976563 39 13 37.976563 13 36.714844 L 13 25.285156 C 13 24.023438 13.976563 23 15.183594 23 Z M 17 26 C 16.449219 26 16 26.449219 16 27 L 16 35 C 16 35.550781 16.449219 36 17 36 C 17.550781 36 18 35.550781 18 35 L 18 27 C 18 26.449219 17.550781 26 17 26 Z M 25 26 C 23.894531 26 23 26.894531 23 28 C 23 28.714844 23.382813 29.375 24 29.730469 L 24 35 L 26 35 L 26 29.730469 C 26.617188 29.371094 27 28.714844 27 28 C 27 26.894531 26.105469 26 25 26 Z"/></svg>